<?xml version="1.0" standalone="no"?>
<!DOCTYPE svg PUBLIC "-//W3C//DTD SVG 1.1//EN" "http://www.w3.org/Graphics/SVG/1.1/DTD/svg11.dtd" >
<svg xmlns="http://www.w3.org/2000/svg">
<metadata></metadata>
<defs>
<font id="kreonregular" horiz-adv-x="1333" >
<font-face units-per-em="2048" ascent="1638" descent="-410" />
<missing-glyph horiz-adv-x="491" />
<glyph horiz-adv-x="2048" />
<glyph horiz-adv-x="2048" />
<glyph unicode="&#xd;" horiz-adv-x="2048" />
<glyph unicode=" "  horiz-adv-x="491" />
<glyph unicode="&#x09;" horiz-adv-x="491" />
<glyph unicode="&#xa0;" horiz-adv-x="491" />
<glyph unicode="!" horiz-adv-x="548" d="M135 1386l240 27l43 -78l-76 -850h-141zM152 113q0 51 34 85.5t84 34.5q51 0 88 -35.5t37 -84.5t-37 -85t-88 -36q-50 0 -84 35t-34 86z" />
<glyph unicode="&#x22;" horiz-adv-x="661" d="M74 1411l190 21l35 -62l-59 -414h-113zM362 1411l191 21l35 -62l-60 -414h-112z" />
<glyph unicode="#" horiz-adv-x="1323" d="M59 602l27 47h281l86 234h-283l-27 106l27 47h338l141 379h135l23 -29l-131 -350h207l137 379h135l23 -29l-127 -350h192q12 0 12 -16v-137h-262l-84 -234h250q12 0 12 -16v-137h-319l-143 -398h-136l-22 27l135 371h-209l-145 -398h-135l-23 27l135 371h-223zM535 649 h206l84 234h-204z" />
<glyph unicode="$" horiz-adv-x="987" d="M68 1028q0 160 96 256q91 91 242 121v385h184v-377q135 -12 272 -59l29 -353h-141l-91 222q-59 20 -155 20q-94 0 -158 -43q-63 -42 -63 -131q0 -103 102 -168q21 -14 49 -29t49 -24.5t63.5 -28t65.5 -28.5q161 -71 240 -173q74 -92 74 -200t-27 -176q-29 -69 -72 -115 q-90 -93 -237 -123v-397h-184v387q-184 9 -318 76v346h148l36 -219q85 -33 177 -33q176 0 241 115q17 34 20.5 74t-8 83t-51 83.5t-102.5 66.5q-17 9 -144.5 65.5t-181.5 93.5q-155 114 -155 283z" />
<glyph unicode="%" horiz-adv-x="1472" d="M63 1059q0 136 70 237q79 117 219 117q142 0 217 -106q72 -104 72 -246q0 -153 -80 -256q-79 -105 -209 -105q-145 0 -221 119q-68 103 -68 240zM180 27l907 1388h173l8 -29l-897 -1386h-178zM215 1057q0 -94 38 -157.5t99 -63.5q60 0 97.5 64.5t37.5 158.5 q0 97 -36.5 159t-100.5 62q-62 0 -98.5 -63.5t-36.5 -159.5zM836 348q0 141 69 238q79 116 217 116q140 0 217 -108q72 -97 72 -246q0 -150 -78 -254q-79 -102 -211 -102q-140 0 -219 117q-67 101 -67 239zM989 346q0 -95 37 -158t98 -63q60 0 96.5 63.5t36.5 159.5 q0 97 -36.5 159t-100.5 62q-61 0 -96 -63t-35 -160z" />
<glyph unicode="&#x26;" horiz-adv-x="1376" d="M66 412q0 216 258 422q-111 188 -111 319q0 150 94 244q100 100 244 100q145 0 227 -82q82 -79 82 -205q0 -186 -262 -407q103 -140 182 -230l107 -127q55 116 78 226h-93l-32 143h319l23 -29q-48 -273 -150 -456l-16 -27q125 -129 158 -137q4 1 13.5 7.5t24.5 17.5 t25 18l59 39l86 -189q-77 -65 -208 -65q-133 0 -291 137q-151 -139 -365 -139q-196 0 -325 123q-127 121 -127 297zM279 401q0 -95 67 -165q71 -68 189 -68q119 0 217 94q-181 213 -336 428q-70 -68 -103.5 -132.5t-33.5 -156.5zM408 1194q0 -101 98 -258q160 145 160 274 q0 65 -35.5 99t-98.5 34q-57 0 -90.5 -44t-33.5 -105z" />
<glyph unicode="'" horiz-adv-x="372" d="M74 1391l190 20l35 -61l-59 -414h-113z" />
<glyph unicode="(" horiz-adv-x="565" d="M110.5 753.5q17.5 231.5 71.5 407.5q62 210 146 359h172q-134 -271 -183 -633q-28 -216 -11 -442.5t67 -403.5q42 -162 127 -373h-172l-15 31q-127 257 -186 604q-34 219 -16.5 450.5z" />
<glyph unicode=")" horiz-adv-x="565" d="M66 -332q81 203 120 348q80 309 80 580q0 521 -200 924h172q223 -415 223 -926q0 -269 -76 -543q-44 -159 -133 -352l-14 -31h-172z" />
<glyph unicode="*" horiz-adv-x="741" d="M72 1038l12 47l231 86l-243 78l32 115l50 12l188 -153l-47 247l115 25l32 -35l-41 -237l187 170l82 -88l-13 -48l-231 -86l244 -77l-33 -115l-49 -12l-189 153l47 -248l-114 -24l-33 35l41 237l-186 -170zM336 1169l18 -26h35l14 28l-16 29h-37z" />
<glyph unicode="+" horiz-adv-x="821" d="M70 645v125l26 29h242v262h154v-262h256v-154h-256v-307h-127l-27 24v283h-268z" />
<glyph unicode="," horiz-adv-x="438" d="M45 -211l102 209l-53 235l215 39q21 -84 21.5 -157t-15 -129.5t-45.5 -116.5q-49 -101 -118 -170l-107 61v29z" />
<glyph unicode="-" horiz-adv-x="817" d="M119 500v125l24 28h543q12 0 12 -16v-137h-579z" />
<glyph unicode="." horiz-adv-x="425" d="M92 113q0 51 34.5 85.5t84.5 34.5q51 0 88 -35.5t37 -84.5q0 -50 -36 -85.5t-87 -35.5t-86 35t-35 86z" />
<glyph unicode="/" horiz-adv-x="944" d="M45 27l672 1386h184l-2 -29l-672 -1384h-176z" />
<glyph unicode="0" horiz-adv-x="1193" d="M94 702q0 484 260 650q94 61 242 61q266 0 395 -221q109 -186 109 -490q0 -479 -262 -649q-94 -61 -242 -61q-267 0 -395 223q-107 180 -107 487zM309 702q0 -368 158 -493q53 -41 129 -41q144 0 221 156q68 139 68 378q0 372 -158 494q-55 41 -132 41t-132 -43 q-49 -38 -86 -113q-68 -142 -68 -379z" />
<glyph unicode="1" horiz-adv-x="741" d="M51 1286l428 133l41 -18v-1239l191 -25v-137h-605l-22 135l231 35v1016l-233 -47z" />
<glyph unicode="2" horiz-adv-x="1060" d="M45 1135q73 132 191 205t264 73q180 0 295 -86q131 -94 131 -283q0 -191 -226 -477q-70 -91 -142.5 -173t-131 -143t-70.5 -75h412l80 219h135l-43 -395h-834l-24 141q15 17 99 106t138.5 148.5t131 153.5t127.5 172q124 178 133 303v14q0 98 -68 154q-57 45 -131 45 q-102 0 -182 -53l-56 -172z" />
<glyph unicode="3" horiz-adv-x="1071" d="M55 1139q73 132 198 203t294 71q158 0 280 -90q129 -102 129 -272q0 -116 -61.5 -201.5t-167.5 -122.5q94 -31 160 -106q86 -95 86 -213q0 -117 -43 -193q-38 -72 -107 -125q-131 -98 -301 -98q-285 0 -456 139l108 164q151 -127 320 -127q127 0 195.5 60.5t68.5 142.5 q0 74 -26 119.5t-77 78.5q-86 56 -235 56h-105v176q212 0 308 41q118 52 118 196q0 102 -67 154q-59 47 -139 47q-78 0 -125 -18q-33 -11 -72 -33l-76 -168z" />
<glyph unicode="4" horiz-adv-x="1060" d="M4 557l590 858h221v-835h168v-177h-168v-235l166 -27v-139h-651v139l282 33v229h-540zM205 580h407v583z" />
<glyph unicode="5" horiz-adv-x="1028" d="M39 133l100 158q132 -123 301 -123q130 0 219 86q86 83 86 213q0 164 -116 240q-94 61 -287 61q-94 0 -180 -12v592l65 65h654v-176h-525v-295h50q29 2 69.5 -0.5t99.5 -12.5t122.5 -37.5t111.5 -68.5q152 -128 152 -342q0 -212 -160 -354q-156 -135 -373 -135 q-119 0 -219 38.5t-170 102.5z" />
<glyph unicode="6" horiz-adv-x="1140" d="M88 694q0 310 148 514q72 100 175.5 158.5t209.5 58.5q172 0 290 -73q74 -45 131 -127l-194 -138l-103 146q-36 15 -79 16.5t-87.5 -11.5t-88.5 -47t-76 -85q-97 -145 -109 -344q51 58 131 95.5t174 37.5q201 0 324 -117q127 -124 127 -327q0 -191 -123 -320 q-133 -139 -326 -139q-264 0 -407 227q-117 187 -117 475zM336 430q71 -262 266 -262q118 0 184 84q60 78 60 192q0 123 -70 199q-72 78 -174 78q-110 0 -188 -84q-75 -84 -78 -207z" />
<glyph unicode="7" horiz-adv-x="909" d="M55 989v424h807l37 -53l-428 -1360h-211l-10 55l448 1182h-462l-52 -248h-129z" />
<glyph unicode="8" horiz-adv-x="1089" d="M84 377q0 242 250 381q-187 122 -187 297q0 172 129 272q119 98 273 98q155 0 274 -90q125 -101 125 -254q0 -144 -125 -245q-46 -40 -73 -58q130 -79 170 -133q86 -112 86 -248q0 -174 -142 -295q-130 -112 -317 -112q-188 0 -322 96q-141 108 -141 291zM299 383 q0 -104 86 -166q45 -32 97 -44t91 -8t72 17q42 16 76 47q70 64 70 152q0 138 -185 233q-5 2 -45 23.5t-63 32.5q-199 -108 -199 -287zM362 1100q0 -94 70 -150q42 -37 150 -86q73 46 112 96t39 117q0 74 -51.5 123t-132.5 49q-79 0 -133 -45t-54 -104z" />
<glyph unicode="9" horiz-adv-x="1112" d="M86 133l115 160q143 -125 297 -125q276 0 303 446q-127 -114 -295.5 -112.5t-292.5 112.5q-125 116 -125 324q0 202 117 340q125 143 344 143q249 0 371 -233q100 -187 100 -496q0 -292 -127 -487q-62 -97 -159 -155t-202 -58q-171 0 -294 53q-79 32 -152 88zM303 956 q0 -138 70 -211q64 -67 164 -67q93 0 163 61q79 70 88 176q-35 231 -153 304q-42 26 -100 26q-103 0 -167.5 -76t-64.5 -213z" />
<glyph unicode=":" horiz-adv-x="481" d="M119 399q0 51 35.5 86t85.5 35q51 0 86.5 -35.5t35.5 -85.5t-35.5 -85t-86.5 -35q-50 0 -85.5 34.5t-35.5 85.5zM119 883q0 51 35.5 87t85.5 36q51 0 86.5 -37t35.5 -88q0 -50 -35.5 -84.5t-86.5 -34.5t-86 35.5t-35 85.5z" />
<glyph unicode=";" horiz-adv-x="499" d="M90 -211l103 209l-54 235l215 39q21 -84 21.5 -157t-15 -129.5t-45.5 -116.5q-49 -101 -118 -170l-107 61v29zM117 678q0 51 35.5 87t85.5 36q51 0 86.5 -37t35.5 -88q0 -50 -35.5 -84.5t-86.5 -34.5t-86 35.5t-35 85.5z" />
<glyph unicode="&#x3c;" horiz-adv-x="866" d="M59 627v139l670 405v-192l-473 -285l473 -282v-199z" />
<glyph unicode="=" horiz-adv-x="923" d="M125 475v156h674v-156h-674zM125 733v156h674v-156h-674z" />
<glyph unicode="&#x3e;" horiz-adv-x="866" d="M137 213v199l473 282l-473 285v192l670 -405v-139z" />
<glyph unicode="?" horiz-adv-x="835" d="M80 1028l35 326q101 34 185 48.5t140 13.5t106 -17t78.5 -33t63.5 -45q88 -82 88 -215q0 -173 -129 -293q-59 -51 -78 -63l-75 -54q-94 -67 -103 -168q-2 -16 -2 -43l-162 -2l-4 21q-10 25 -7.5 89.5t24.5 104.5q28 49 65 80q26 24 84.5 66t83.5 65q90 78 90 181 q0 65 -45.5 109t-128.5 44q-89 0 -129 -18l-55 -197h-125zM193 113q0 51 34 85.5t84 34.5q51 0 88 -35.5t37 -84.5t-37 -85t-88 -36q-49 0 -83.5 35.5t-34.5 85.5z" />
<glyph unicode="@" horiz-adv-x="1701" d="M63 553q0 178 64.5 324t179.5 253q233 207 567 207q326 0 539 -207q102 -96 160.5 -228.5t58.5 -262.5q0 -235 -106 -385q-114 -156 -289 -156q-119 0 -174 64q-98 -64 -221 -64q-166 0 -275 103q-121 115 -121 319q0 229 152 348q116 88 272 88q112 0 203 -45l74 29 l55 -18v-586q-2 -57 38 -68q46 -11 99 43q22 23 41 54q60 105 60 235q0 136 -39 234q-41 104 -111 174q-155 155 -413 155q-268 0 -443 -172q-176 -173 -176 -442q0 -314 184 -486q170 -159 455 -159q149 0 240 39l37 -9l-58 -176q-102 -30 -262 -30q-164 0 -307 57 q-146 56 -252 162q-232 226 -232 606zM643 528q0 -140 74 -217q58 -61 176 -61q60 0 119 47q-2 14 -2 39v440q-58 29 -117.5 30.5t-103 -16.5t-74.5 -49q-72 -78 -72 -213z" />
<glyph unicode="A" horiz-adv-x="1245" d="M-2 127l106 37l414 1251h197l436 -1251l94 -37l-22 -127h-482v121l181 43l-99 303h-438l-94 -303l176 -41v-123h-442zM438 643h328l-168 514z" />
<glyph unicode="B" horiz-adv-x="1181" d="M94 1262v153h473q222 0 353 -104q124 -100 124 -267q0 -116 -65 -208q-60 -84 -145 -111q107 -20 186 -102q82 -85 82 -213q0 -131 -45 -205q-43 -75 -115 -123q-122 -82 -332 -82h-489l-21 143l125 29v1077zM430 176h160q199 0 270 115q26 44 26 110t-26 109 q-25 45 -67 68q-77 45 -207 45h-156v-447zM430 799h90q159 0 234 54t75 171q0 215 -274 215h-125v-440z" />
<glyph unicode="C" horiz-adv-x="1191" d="M70 692q0 341 209 541q191 182 483 182q137 0 303 -39l39 -372h-139l-80 221q-38 14 -135 14q-100 0 -187 -43q-85 -42 -149 -115q-129 -150 -129 -368q0 -236 141 -389q144 -156 381 -156q80 0 155 24.5t113 53.5l60 -162q-130 -92 -363 -92q-285 0 -483 180 q-219 201 -219 520z" />
<glyph unicode="D" horiz-adv-x="1296" d="M100 145l125 29v1077l-123 13v151h387q335 0 531 -178q203 -182 203 -520q0 -337 -195 -529q-194 -188 -530 -188h-377zM428 176l16 -2q564 0 564 545q0 245 -148 387q-144 135 -383 135l-49 -2v-1063z" />
<glyph unicode="E" horiz-adv-x="1103" d="M98 145l125 27v1079l-123 11v153h873l41 -385h-129l-78 209h-381v-430h324v-176h-324v-457h401l72 207h129l-41 -383h-868z" />
<glyph unicode="F" horiz-adv-x="1046" d="M98 145l125 27v1079l-123 11v153h873l43 -385h-127l-82 209h-381v-430h324v-176h-324v-453l332 -47l-13 -133h-626z" />
<glyph unicode="G" horiz-adv-x="1259" d="M68 690q0 329 198 527t514 198q155 0 320 -43l30 -371h-149l-74 228q-46 12 -105 12q-3 0 -5 -1q-62 0 -131 -13t-135 -50t-109 -92q-139 -157 -139 -389q0 -239 147 -383q151 -145 399 -145q75 0 111 8l2 301l-233 29l36 145h400v-622q-145 -37 -322 -37q-173 0 -309 47 q-126 45 -233 137q-213 192 -213 514z" />
<glyph unicode="H" horiz-adv-x="1376" d="M100 147l123 23v1079l-123 11v155h430l21 -153l-123 -21v-424h520v432l-117 11v155h424l21 -153l-123 -21v-1075l123 -16v-150h-424l-21 147l117 23v471h-520v-475l125 -16v-150h-432z" />
<glyph unicode="I" horiz-adv-x="653" d="M94 147l129 23v1079l-129 11v155h447l20 -153l-133 -21v-1075l133 -16v-150h-448z" />
<glyph unicode="J" horiz-adv-x="751" d="M16 96l109 162q90 -84 149 -84q76 0 76 113v954l-157 21l20 153h469v-155l-127 -11v-944q0 -182 -109 -262q-68 -51 -161 -51q-162 0 -269 104z" />
<glyph unicode="K" horiz-adv-x="1255" d="M94 147l129 23v1079l-129 8v158h438l19 -151l-123 -23v-577l477 581l-145 23v147h452v-149l-67 -15l-393 -473l354 -612l113 -21v-145h-285l-324 608l-182 -219v-223l125 -16v-150h-440z" />
<glyph unicode="L" horiz-adv-x="1046" d="M98 145l125 23v1083l-123 11v153h441l18 -151l-133 -23v-1065h401l72 207h129l-41 -383h-868z" />
<glyph unicode="M" horiz-adv-x="1748" d="M92 145l129 27v1075l-102 10v158h422l331 -1147l345 1147h399l20 -158l-106 -16v-1075l112 -23l-8 -143h-397l-16 147l118 27v1053l-362 -1196h-236l-350 1206v-1069l121 -23v-145h-395z" />
<glyph unicode="N" horiz-adv-x="1425" d="M96 145l129 27v1075l-123 13v155h428l517 -1218v1050l-127 17v151h403l27 -153l-131 -25v-1237h-304l-518 1221v-891l2 -146q0 -14 2 -18l117 -21v-145h-397z" />
<glyph unicode="O" d="M88 705q0 304 143 499q157 213 435 213q279 0 436 -213q145 -201 145 -499q0 -299 -145 -500q-157 -213 -436 -213q-278 0 -435 213q-143 195 -143 500zM303 700q0 -217 90 -370q94 -162 273 -162q178 0 276 162q90 149 90 370q0 224 -90 377q-102 164 -276 164 q-178 0 -273 -164q-90 -153 -90 -377z" />
<glyph unicode="P" horiz-adv-x="1132" d="M94 143l131 29v1077l-129 11v155h432q286 0 430 -129q132 -120 132 -323q0 -240 -162 -359q-143 -104 -404 -104h-94v-322q97 -17 297 -41l-6 -137h-606zM430 676h86q190 0 279 86q79 76 79 203q0 274 -372 274h-72v-563z" />
<glyph unicode="Q" d="M88 705q0 304 143 499q157 213 435 213q279 0 436 -213q145 -201 145 -499q0 -299 -145 -500q-157 -213 -436 -213q-278 0 -435 213q-143 195 -143 500zM303 700q0 -217 90 -370q94 -162 273 -162q178 0 276 162q90 149 90 370q0 224 -90 377q-102 164 -276 164 q-178 0 -273 -164q-90 -153 -90 -377zM530 -131l80 86l430 -154l13 -67l-183 -162q-69 57 -195 168.5t-145 128.5z" />
<glyph unicode="R" horiz-adv-x="1196" d="M94 143l131 29v1077l-129 11v155h432q286 0 430 -129q132 -120 132 -323q0 -138 -70.5 -238t-196.5 -152l199 -407l117 -25v-141h-285l-229 524q-50 -6 -101 -6h-94v-348l162 -29v-141h-477zM430 694h86q185 0 279 88q79 70 79 183q0 274 -372 274h-72v-545z" />
<glyph unicode="S" horiz-adv-x="1038" d="M96 1034q0 181 133 283q128 98 316 98q181 0 346 -61l29 -353h-142l-90 222q-59 20 -156 20q-93 0 -157 -43t-64 -131q0 -103 103 -168q21 -14 49 -29t49 -24.5t63.5 -28t65.5 -28.5q161 -71 240 -173q73 -91 73 -210q0 -120 -41 -197t-106 -125q-125 -94 -336 -94 q-206 0 -365 78l15 346h143l37 -219q85 -33 176 -33q177 0 242 115q17 34 21 74q1 9 0 19q0 31 -8 64q-12 43 -51.5 83.5t-102.5 66.5q-17 9 -144.5 65.5t-181.5 93.5q-156 114 -156 289z" />
<glyph unicode="T" horiz-adv-x="1187" d="M29 1036l43 379h1044l45 -379h-125l-86 203h-256v-1063l238 -41l-19 -135h-630l-27 135l233 41v1063h-251l-84 -203h-125z" />
<glyph unicode="U" horiz-adv-x="1325" d="M61 1262v153h474v-151l-142 -19v-768q0 -149 73 -229t218 -80q190 0 258 164q25 61 25 147v768l-125 19v149h413v-151l-116 -21v-772q0 -239 -144 -365q-126 -114 -317 -114q-234 0 -362 125.5t-128 353.5v778z" />
<glyph unicode="V" horiz-adv-x="1185" d="M14 1276v139h463l17 -127l-187 -39l301 -930l305 934l-184 35v127h449v-139l-78 -27l-414 -1249h-188l-410 1249z" />
<glyph unicode="W" horiz-adv-x="1830" d="M31 1274v141h440l18 -127l-149 -33l186 -1024l305 1147h205l307 -1155l193 1037l-168 30l12 125h441v-139l-121 -39l-242 -1237h-270l-275 1047l-276 -1047h-272l-232 1243z" />
<glyph unicode="X" horiz-adv-x="1175" d="M41 0v127l90 14l334 545l-338 561l-86 25v143h457l16 -125l-145 -30l239 -392l230 389l-121 29v129h416v-149l-89 -15l-333 -549l331 -542l91 -25v-135h-463v127l129 10l-232 383l-225 -385l115 -14v-121h-416z" />
<glyph unicode="Y" horiz-adv-x="1153" d="M8 1262v153h436l15 -135l-131 -25l278 -512l250 514l-117 23v135h400v-153l-88 -21l-369 -737v-334l238 -41l-21 -129h-635l-20 129l235 41v346l-389 727z" />
<glyph unicode="Z" horiz-adv-x="1132" d="M76 158l727 1081h-531l-41 -219h-129v395h906l24 -190q-99 -152 -356.5 -545.5t-329.5 -503.5h522l39 217h131v-393h-929z" />
<glyph unicode="[" horiz-adv-x="657" d="M160 -338v1751l16 25h475q13 0 13 -15v-137h-310v-1501h310v-135q0 -17 -13 -17h-469z" />
<glyph unicode="\" horiz-adv-x="942" d="M43 1391v24h182l674 -1388l-16 -27h-166z" />
<glyph unicode="]" horiz-adv-x="657" d="M-6 -215h309v1501h-309v137q0 15 12 15h475l17 -25v-1751l-23 -29h-469q-12 0 -12 17v135z" />
<glyph unicode="^" horiz-adv-x="907" d="M106 1151l322 332h53l320 -334l-4 -10h-166l-178 121l-177 -121h-163z" />
<glyph unicode="_" horiz-adv-x="1153" d="M10 -27l29 27h1091q13 0 13 -14v-140h-1133v127z" />
<glyph unicode="`" horiz-adv-x="618" d="M106 1294l123 146l64 -17l219 -323l-76 -76z" />
<glyph unicode="a" horiz-adv-x="942" d="M74 254q0 191 159 272q127 65 367 68v145q0 45 -40.5 77t-115.5 32q-76 0 -112 -33l-41 -133l-215 63q47 172 231 230q61 20 148 20q157 0 243 -78t86 -210v-525q0 -43 29 -43q16 0 43 15l45 -109q-65 -53 -141 -53q-118 0 -148 92q-88 -94 -229 -94q-138 0 -225 78 q-84 78 -84 186zM268 283q0 -46 13.5 -71.5t40.5 -45.5q33 -25 89 -25q7 1 14 1q66 4 116 44q45 36 59 82v176q-127 0 -192.5 -19t-104.5 -58q-35 -35 -35 -84z" />
<glyph unicode="b" horiz-adv-x="1003" d="M4 1458l260 39l62 -65v-492q55 36 123 48q41 8 81 8q24 0 48 -3q62 -8 112 -32q75 -35 127 -99q113 -134 113 -356q0 -278 -152 -412q-117 -102 -286 -102q-114 0 -197 47q-92 -46 -107 -51l-47 28v1327l-118 -8zM326 199q18 -21 64 -37.5t89 -16.5q104 0 168 72 q88 88 88 277q0 178 -76 266q-65 80 -167 80q-49 0 -95 -19t-71 -49v-573z" />
<glyph unicode="c" horiz-adv-x="884" d="M74 477q0 271 143 408q113 110 297 110q134 0 231 -69q80 -56 107 -117l-203 -96l-65 118q-49 11 -68 11q-248 0 -248 -361q0 -153 75 -244.5t198 -91.5q60 0 122.5 22t102.5 62l45 -143q-122 -94 -299 -94q-184 0 -303 119q-135 132 -135 366z" />
<glyph unicode="d" horiz-adv-x="1028" d="M74 481q0 279 151 412q117 102 287 102q93 0 164 -32v380l-117 -8l-18 123l256 43l63 -69v-1250q0 -43 29 -43q16 0 43 15l45 -109q-65 -53 -154 -53q-91 0 -125 67q-94 -67 -204 -67q-106 0 -181 35q-76 36 -127 98q-112 133 -112 356zM268 494q0 -179 76 -267 q65 -80 168 -80q101 0 164 66v578q-20 20 -64.5 35.5t-87.5 15.5q-104 0 -168 -72q-88 -88 -88 -276z" />
<glyph unicode="e" horiz-adv-x="909" d="M72 485q0 127 37 220q38 96 98 159q122 131 307 131q135 0 227 -71q95 -77 95 -199q0 -148 -105 -233q-139 -112 -455 -115q34 -160 166 -213q46 -18 102.5 -18t94 9t68.5 21q55 27 77 49l45 -143q-25 -25 -75 -45q-113 -46 -223 -46q-91 0 -179 32q-179 65 -246 247 q-34 90 -34 215zM266 528q249 0 336 84q36 37 38 96q0 3 1 5q0 55 -31 90q-29 35 -89 37h-13q-52 0 -86 -19q-36 -16 -72 -55q-72 -84 -84 -238z" />
<glyph unicode="f" horiz-adv-x="690" d="M35 975l14 20h154v187q0 155 84 239q74 74 196 74q141 0 262 -86q21 -13 31 -23l-145 -169l-131 120q-16 4 -29 4q-82 0 -82 -135v-211h232q10 0 10 -12v-141h-242v-697l234 -34v-111h-512l-25 111l117 24v707h-140z" />
<glyph unicode="g" horiz-adv-x="999" d="M37 -258q0 193 170 276q-49 40 -49 129q0 90 80 170q-158 106 -158 301q0 164 113 271q106 106 264 106q155 0 268 -90l203 103l43 -7l20 -170l-184 -22q48 -89 49 -183v-6q0 -91 -33 -160q-34 -72 -90 -112q-110 -90 -266 -90q-54 0 -90 8l-51 -80l8 -34l87 -14 q87 -13 157 -29q166 -38 249 -121q62 -68 62 -170t-37 -172q-38 -70 -96 -117q-121 -92 -295 -92q-183 0 -299 78q-125 82 -125 227zM217 -229q0 -67 76 -113q71 -41 180 -41q108 0 182 47q78 47 78 113q0 64 -57 90q-64 28 -158 47q-80 17 -156 37q-145 -59 -145 -180z M274 643q0 -123 60 -180q51 -51 133 -51q84 0 139 55q56 56 56 160q0 100 -56.5 157.5t-138.5 57.5h-8q-82 -4 -133.5 -62.5t-51.5 -136.5z" />
<glyph unicode="h" horiz-adv-x="1067" d="M37 1458l256 43l63 -69v-510q101 73 242 73q215 0 279 -155q24 -52 24 -131v-566l123 -32v-111h-408l-24 111l125 28v539q0 85 -39 122.5t-96 37.5q-69 0 -140 -29q-56 -23 -86 -53v-613l121 -32v-111h-407l-25 111l127 28v1204l-117 -8z" />
<glyph unicode="i" horiz-adv-x="548" d="M59 950l252 45l66 -65v-787l121 -32v-111h-410l-22 111l127 28v697l-113 -9zM127 1364q0 54 36.5 90.5t90.5 36.5q53 0 90 -38.5t37 -90.5t-36.5 -88.5t-90.5 -36.5t-90.5 36.5t-36.5 90.5z" />
<glyph unicode="j" horiz-adv-x="497" d="M-76 -504l78 150l10 -8q10 -8 14 -11t15 -9.5t18.5 -9.5t19.5 -6t23 -3q72 0 72 125v1112l-108 -9l-19 123l248 45l63 -65v-1184q0 -303 -245 -303q-106 0 -189 53zM106 1364q0 54 36.5 90.5t90.5 36.5h3q38 0 69 -23q32 -24 45 -58q10 -24 10 -51q0 -10 -2 -21 q-5 -39 -34 -64q-27 -29 -66 -35q-12 -2 -24 -2q-26 0 -50 10q-34 14 -58 45q-20 28 -20 63v9z" />
<glyph unicode="k" horiz-adv-x="993" d="M37 1458l256 43l63 -69v-891l314 325h-101l-16 129h326l49 -94l-318 -307l236 -455l108 -24v-115h-256l-233 453l-109 -105v-213l121 -24v-111h-407l-25 111l127 28v1204l-117 -8z" />
<glyph unicode="l" horiz-adv-x="532" d="M35 1458l256 43l65 -69v-1289l129 -32v-111h-417l-25 111l129 28v1204l-117 -8z" />
<glyph unicode="m" horiz-adv-x="1632" d="M59 950q19 3 252 45l60 -75q97 75 256 75t235 -98q131 98 299 98q213 0 283 -155q24 -52 24 -131v-566l121 -32v-111h-409l-23 111l127 28v539q0 88 -51 127q-42 33 -101 33h-8q-64 -2 -122 -24.5t-84 -49.5v-21l2 -59v-541l122 -32v-111h-407l-25 111l125 28v539v9 q1 63 -27 99q-30 40 -76 47q-21 3 -42 3q-26 0 -54 -4q-51 -8 -94 -29.5t-65 -44.5v-615l119 -32v-111h-408l-25 111l130 28v697l-113 -9z" />
<glyph unicode="n" horiz-adv-x="1085" d="M59 950q19 3 252 45l60 -75q97 75 245 75q214 0 281 -155q23 -58 23 -131v-564l122 -34v-111h-407l-25 111l125 28v539v9q1 63 -27 99q-30 40 -76 47q-21 3 -42 3q-26 0 -54 -4q-51 -8 -94 -29.5t-65 -44.5v-615l119 -32v-111h-408l-25 111l130 28v697l-113 -9z" />
<glyph unicode="o" horiz-adv-x="1013" d="M74 502q0 232 131 366q121 127 303 127q188 0 311 -135t123 -362q0 -238 -131 -375q-119 -131 -303 -131q-190 0 -311 139q-123 138 -123 371zM268 479q0 -163 66 -250q66 -84 172 -84q107 0 174 82q68 83 68 254q0 167 -66 264t-174 97q-116 0 -180 -101 q-60 -97 -60 -262z" />
<glyph unicode="p" horiz-adv-x="1034" d="M39 952l256 43l55 -59q59 38 128 52q44 9 84 9q24 0 47 -3q61 -9 112 -33q75 -35 127 -99q113 -134 113 -356q0 -278 -152 -412q-117 -102 -287 -102q-91 0 -164 31v-431l250 -45v-108h-536l-25 108l127 31v1260l-117 -9zM358 197q19 -21 64 -36.5t88 -15.5q103 0 170 72 q86 89 86 277q0 177 -74 266q-68 80 -168 80t-166 -66v-577z" />
<glyph unicode="q" horiz-adv-x="1001" d="M74 481q0 279 151 412q117 102 287 102q100 0 184 -41l117 43l47 -39v-1331l113 -39v-149h-527l-22 129l252 49v428q-83 -53 -187 -53q-101 0 -176 35q-76 36 -127 98q-112 133 -112 356zM268 494q0 -179 76 -267q65 -80 168 -80q101 0 164 66v578q-20 20 -64.5 35.5 t-87.5 15.5q-104 0 -168 -72q-88 -88 -88 -276z" />
<glyph unicode="r" horiz-adv-x="829" d="M59 950q95 15 242 43l64 -94q82 94 213 94q87 0 149.5 -42.5t95.5 -112.5l-202 -103l-64 99q-68 0 -125 -60q-57 -57 -57 -158v-442q0 -8 35 -14l231 -49v-111h-553l-25 111l127 28v690h-112z" />
<glyph unicode="s" horiz-adv-x="827" d="M49 207l211 80l49 -119q50 -22 98 -22q51 0 99 26q47 30 47 90q0 75 -94 115q-114 50 -160 74q-76 40 -111 69q-92 77 -92 205q0 125 101 201q92 69 225 69q125 0 217 -65q76 -52 121 -137l-209 -80l-47 104q-30 13 -66 17q-11 1 -20 2q-25 0 -49 -6q-33 -8 -55.5 -34.5 t-22.5 -66.5q0 -50 45 -83.5t147 -74.5q160 -65 213 -139q32 -43 44 -98q8 -35 8 -67q0 -19 -3 -37q-7 -48 -28 -85q-31 -54 -80 -88q-95 -65 -234 -65q-118 0 -223 63q-100 60 -131 152z" />
<glyph unicode="t" horiz-adv-x="665" d="M8 975l15 20h182v342l164 39l10 -30v-351h213q10 0 10 -12v-141h-223v-588q0 -61 17 -82.5t50 -21.5q52 0 91 22q36 13 61 35q4 -19 43 -135q-89 -80 -227 -80q-94 0 -151.5 56t-57.5 171v623h-168z" />
<glyph unicode="u" horiz-adv-x="1044" d="M25 950l254 45l63 -67v-555q0 -193 113 -217q31 -8 61 -8q55 0 107 28q60 35 77 80v575h-106l-19 119l250 47l60 -69v-723q0 -68 37 -68l36 4l29 -92q-57 -57 -133 -57q-104 0 -139 92q-95 -92 -230 -92q-225 0 -301 184q-26 62 -26 154v501h-113z" />
<glyph unicode="v" horiz-adv-x="956" d="M0 977l248 18l260 -755l252 620h-111l-14 117l248 18l65 -77l-381 -928h-161l-310 870h-80z" />
<glyph unicode="w" horiz-adv-x="1441" d="M10 979l273 20l159 -784l193 758h223l209 -760l158 639h-92l-15 127l228 18l45 -71l-224 -932h-241l-195 731l-188 -731h-244l-184 858h-90z" />
<glyph unicode="x" horiz-adv-x="950" d="M57 129h86l213 367l-215 364h-84v135h230l217 -360l196 360h185v-129h-78l-219 -372l217 -361h88v-133h-240l-207 346l-198 -346h-182z" />
<glyph unicode="y" horiz-adv-x="983" d="M2 979l254 16l276 -829l259 686h-107l-14 125l248 18l53 -69q-167 -473 -330 -897q-140 -363 -170 -420q-16 -39 -53 -88q-72 -84 -185 -84q-91 0 -182 82l76 141q58 -70 121 -70q66 0 112 123q7 17 27 66l45 121l-332 952h-82z" />
<glyph unicode="z" horiz-adv-x="866" d="M88 0v158l469 682q-212 4 -321 4l-29 -160h-119v311h690v-159l-471 -682h326l29 168h116v-322h-690z" />
<glyph unicode="{" horiz-adv-x="690" d="M14 477v170q102 0 165 59t63 166l-2 78l-2 92q0 204 53 293q65 111 252 111q32 0 69.5 -5t59 -10t22.5 -6h6l-61 -196l-145 49q-64 -34 -64 -201l2 -205q0 -298 -215 -313q215 -9 215 -311l-2 -180q0 -141 29 -197q14 -24 35 -33l145 49l61 -196q-131 -23 -157 -23 q-183 0 -254 127q-51 86 -51 283l4 198q0 140 -142 187q-38 14 -86 14z" />
<glyph unicode="|" horiz-adv-x="505" d="M160 -438v1859h186v-1859h-186z" />
<glyph unicode="}" horiz-adv-x="690" d="M-10 -309l61 196l146 -49q63 26 63 230l-2 180q0 305 217 317q-217 0 -217 307l2 205q0 167 -63 201l-146 -49l-61 196q121 21 190 20.5t127 -28.5q55 -25 92 -82q54 -88 54 -293l-2 -92l-2 -78q0 -107 63 -166t164 -59v-170q-94 0 -160 -51q-67 -52 -67 -150l4 -198 q0 -195 -52 -283q-71 -127 -254 -127q-20 0 -43.5 2.5t-39 5.5t-40.5 8t-34 7z" />
<glyph unicode="~" horiz-adv-x="839" d="M51 1186l2 26q33 70 76 107q78 63 164 63q69 0 158 -47l63 -30q27 -15 53 -15l113 101l121 -140q-109 -121 -213 -121q-51 0 -117 29q-83 37 -96 41q-32 14 -80 14q-41 0 -74.5 -30t-48.5 -70z" />
<glyph unicode="&#xa1;" horiz-adv-x="520" d="M121 -387l65 901h142l75 -850l-43 -78zM137 887q0 51 34.5 86t84.5 35q51 0 88 -36t37 -85t-37 -85t-88 -36q-50 0 -84.5 35t-34.5 86z" />
<glyph unicode="&#xa2;" horiz-adv-x="894" d="M63 477q0 235 105 367q91 114 242 141v420h184v-420q98 -19 168 -80q48 -42 80 -96l-203 -96l-66 118q-49 11 -67 11q-248 0 -248 -361q0 -153 74.5 -244.5t197.5 -91.5q60 0 123 22t103 62l45 -143q-89 -68 -207 -86v-430h-184v430q-150 30 -242 145q-105 126 -105 332z " />
<glyph unicode="&#xa3;" horiz-adv-x="1079" d="M61.5 29q2.5 23 7 49t25 61.5t53.5 63.5q136 136 154 489h-182v135l16 19h172l-4 192q0 291 205 355q151 52 330 -21q63 -26 114 -65l-145 -187l-164 140q-97 -3 -125 -82q-18 -50 -18 -226v-106h286q15 0 15 -17v-137h-307q-15 -276 -82 -413q114 -9 315 -82 q41 -15 61 -15l156 105l80 -217q-72 -78 -231 -78q-97 0 -199 31q-20 7 -143 47q-43 14 -103 14q-51 0 -86 -27t-47 -63h-149q-3 3 -3 10q-4 2 -1.5 25z" />
<glyph unicode="&#xa4;" horiz-adv-x="1232" d="M104 317l138 138q-78 116 -78 254q0 144 82 260l-142 143l142 145l153 -153q98 56 216 55.5t216 -57.5l156 155l143 -145l-147 -145q82 -116 82 -258q0 -136 -78 -252l143 -140l-143 -145l-149 147q-102 -59 -221.5 -59t-223.5 57l-147 -145zM358 709q0 -113 72 -186.5 t184 -73.5t184 73.5t72 186.5t-72 186.5t-184 73.5t-184 -73.5t-72 -186.5z" />
<glyph unicode="&#xa5;" horiz-adv-x="1249" d="M51 1266v149h424l14 -129l-124 -26l284 -451l281 453l-121 22v131h389v-149l-78 -21l-385 -612h223v-158h-225v-43h225v-158h-225v-104l234 -41l-17 -129h-631l-18 129l227 41v104h-243v158h243v43h-243v158h229l-381 614z" />
<glyph unicode="&#xa6;" horiz-adv-x="528" d="M166 -381v778h196v-778h-196zM166 635v778h196v-778h-196z" />
<glyph unicode="&#xa7;" horiz-adv-x="1030" d="M98 -254l17 346h139l29 -231q95 -25 166 -28.5t109.5 7.5t76.5 33q76 46 76 123q0 75 -45 117q-41 41 -111 77q-25 14 -131 65t-158 85q-155 101 -155 244q0 147 112 247q-117 99 -117 240q0 150 119 244q121 100 305 100q177 0 357 -61l26 -353h-141l-88 232 q-56 20 -152 20q-93 0 -153 -45q-60 -48 -60 -104q0 -55 28 -91.5t83 -72.5q37 -22 116.5 -56.5t110.5 -49.5q144 -69 217 -154q66 -81 66 -199q0 -116 -111 -227q95 -89 95 -219q0 -176 -142 -279q-127 -86 -321 -86q-102 0 -182 19t-181 57zM324 622.5q1 -64.5 61 -106.5 q65 -46 131 -74q86 -41 162 -80q28 38 38.5 72t7.5 60t-22.5 51.5t-42 43.5t-61.5 40t-69.5 36t-77.5 36t-76 36q-52 -50 -51 -114.5z" />
<glyph unicode="&#xa8;" horiz-adv-x="790" d="M106 1245q0 50 34 86.5t83 36.5q51 0 87 -36.5t36 -86.5q0 -49 -36.5 -84t-86.5 -35q-47 0 -82 36t-35 83zM442 1247q0 48 36 84.5t85 36.5q50 0 85.5 -36.5t35.5 -86.5q0 -48 -36 -83.5t-85 -35.5q-47 0 -84 37t-37 84z" />
<glyph unicode="&#xa9;" horiz-adv-x="1466" d="M66 764q0 137 51 259t143 214q92 93 214 145t257 52q137 0 259 -51.5t214 -145.5q94 -92 145.5 -214t51.5 -259q0 -135 -52 -257t-145 -214q-93 -93 -214.5 -144t-258.5 -51q-135 0 -257 51.5t-214 143.5t-143 214t-51 257zM246 766q0 -204 143 -344q140 -143 344 -143 q203 0 344 141q144 144 144 346q0 203 -144 344q-140 143 -344 143q-203 0 -346 -143q-141 -141 -141 -344zM375 752q0 184 112 290q108 105 273 105q44 0 94 -4l53 -10l19 -248h-97l-28 104q-12 0 -37 2q-106 0 -169 -58t-63 -165q0 -109 62 -174q40 -40 96.5 -55 t113.5 -4.5t107 40.5l54 -133q-72 -44 -146 -58t-135.5 -1t-110 37.5t-86.5 58.5q-112 103 -112 273z" />
<glyph unicode="&#xaa;" horiz-adv-x="700" d="M78 1020q0 120 100 166q78 35 219 35v18q0 76 -69 76q-32 0 -62 -6l-8 -49l-178 34q18 76 92 123q64 37 150 37q84 0 137 -29q90 -46 100 -184q4 -86 4 -139q0 -80 2 -92q3 -19 15 -19l26 6l31 -94q-59 -45 -122 -45t-93 49q-53 -53 -143 -53q-91 0 -146 49t-55 117z M242 1038q0 -24 15 -41.5t48 -17.5q72 0 92 51v88q-155 0 -155 -80z" />
<glyph unicode="&#xab;" horiz-adv-x="944" d="M12 694l437 439l110 -111l-330 -330l330 -332l-110 -108zM360 694l394 396l110 -111l-286 -287l286 -289l-110 -108z" />
<glyph unicode="&#xac;" horiz-adv-x="1204" d="M100 778v131l23 23h928l22 -23v-413q0 -15 -16 -15h-144v297h-813z" />
<glyph unicode="&#xad;" horiz-adv-x="825" d="M-57 639v176h938v-176h-938z" />
<glyph unicode="&#xae;" horiz-adv-x="1466" d="M66 764q0 137 51 259t143 214q92 93 214 145t257 52q137 0 259 -51.5t214 -145.5q94 -92 145.5 -214t51.5 -259q0 -135 -52 -257t-145 -214q-93 -93 -214.5 -144t-258.5 -51q-135 0 -257 51.5t-214 143.5t-143 214t-51 257zM246 766q0 -204 143 -344q140 -143 344 -143 q203 0 344 141q144 144 144 346q0 203 -144 344q-140 143 -344 143q-203 0 -346 -143q-141 -141 -141 -344zM467 1026v119h205q173 0 262 -74q80 -65 80 -178q0 -146 -133 -211l94 -172l63 -12v-103h-180l-117 252q-28 -4 -43 -4h-41v-131l95 -23v-94h-275l-8 99l47 16v506z M657 776h29q178 0 178 115q0 117 -170 117h-37v-232z" />
<glyph unicode="&#xb0;" horiz-adv-x="624" d="M68 1221q0 119 63 194q66 78 180 78q112 0 181 -78q65 -77 65 -196q0 -118 -65 -195q-64 -76 -183 -76q-114 0 -177.5 75.5t-63.5 197.5zM229 1221q0 -81 41 -119q30 -24 60.5 -10.5t46.5 43.5q18 37 18 86q0 77 -43 114q-32 23 -63 11t-43 -43q-17 -39 -17 -82z" />
<glyph unicode="&#xb1;" horiz-adv-x="931" d="M129 346v156h674v-156h-674zM129 842v155h258v240h156v-240h260v-155h-260v-264h-156v264h-258z" />
<glyph unicode="&#xb2;" horiz-adv-x="614" d="M72 1286q27 80 91.5 123t127.5 43q101 0 158 -45q65 -53 65 -123q0 -71 -25 -119q-23 -45 -59 -84q-25 -28 -72.5 -64.5t-52.5 -41.5h107l30 69h86l-22 -188h-391l-21 88l72 64q129 118 158 170q28 51 28 79q0 68 -67 68q-24 0 -43 -8l-31 -74z" />
<glyph unicode="&#xb3;" horiz-adv-x="604" d="M72 934l63 108q30 -25 47 -37t44 -23t55 -11q43 0 65.5 21t22.5 57q0 59 -146 59v98q125 0 125 72q0 18 -14.5 33.5t-34.5 15.5q-54 0 -57 -10l-29 -62l-135 45q59 152 233 152q70 0 115 -31q82 -58 82 -127q0 -108 -100 -129q51 -12 85.5 -44t34.5 -85q0 -92 -73 -145 q-64 -43 -154 -43q-143 0 -229 86z" />
<glyph unicode="&#xb4;" horiz-adv-x="641" d="M106 1124l238 310l66 16l125 -166l-345 -250z" />
<glyph unicode="&#xb5;" horiz-adv-x="1097" d="M55 950l254 45l64 -65v-78l2 -234v-317q18 -154 174 -154q72 0 143 56q24 20 35 43v583h-100l-21 121l250 47l59 -69v-723q0 -41 9 -54.5t30 -13.5l35 4l29 -92q-57 -57 -148 -57q-90 0 -127 88q-88 -88 -219 -88q-84 0 -157 28l6 -30v-551h-189v1392h-110z" />
<glyph unicode="&#xb6;" horiz-adv-x="1196" d="M57 1024q0 152 95 258q124 133 354 133h575v-164h-98v-1251h-174v1251h-92v-979l-2 -67q0 -82 -187 -232l-135 185l139 88v366q-224 10 -349.5 120.5t-125.5 291.5z" />
<glyph unicode="&#xb8;" horiz-adv-x="831" d="M147 -510l89 176l145 -96q77 0 117 55q8 12 12 31t-1 42.5t-20 44t-51 34.5t-88 14l-26 2l-35 39l71 199h203l-47 -119q84 -23 136.5 -79t52.5 -152q0 -107 -84.5 -176.5t-227.5 -69.5q-148 0 -246 55z" />
<glyph unicode="&#xb9;" horiz-adv-x="485" d="M70 1399l241 69l23 -32v-478l74 -16v-86h-302l-6 82l78 14v367l-90 -16z" />
<glyph unicode="&#xba;" horiz-adv-x="684" d="M75.5 1221.5q18.5 113.5 74.5 158.5q73 76 192 76q122 0 195 -76q77 -83 77 -227q0 -221 -163 -285q-50 -20 -109 -20q-187 0 -252 170q-33 90 -14.5 203.5zM233 1147q0 -68 28 -108t81 -40t82 39.5t29 108.5q0 70 -28.5 113t-82.5 43q-52 0 -80.5 -43.5t-28.5 -112.5z " />
<glyph unicode="&#xbb;" horiz-adv-x="946" d="M82 403l285 289l-285 287l111 111l393 -400l-393 -395zM387 1022l113 111l436 -443l-436 -438l-111 108l328 330z" />
<glyph unicode="&#xbc;" horiz-adv-x="1343" d="M63 1362l273 78l24 -17v-114q0 -17 -2 -25v-524q0 -19 74 -19v-96h-338v92l92 15v522l-106 -17zM193 4l684 1411h182l-2 -29l-682 -1409l-176 23zM686 221v150l318 420h180v-435h96v-135h-96v-108l86 -13v-100h-422l-8 90l172 25v106h-326zM827 356h185v238z" />
<glyph unicode="&#xbd;" horiz-adv-x="1435" d="M68 1362l272 78l25 -17v-114q0 -13 -3 -25v-524q0 -19 74 -19v-96h-338v92l92 15v522l-106 -17zM197 4l684 1411h182l-2 -29l-682 -1409l-176 23zM776 608q90 187 262 187q148 0 215 -70q64 -64 64 -164q0 -140 -154 -311q-14 -16 -42 -47t-42 -47l-20 -23h182l43 115h92 l-26 -248h-514l-27 100q14 15 54.5 55t78.5 79.5t70 76.5q127 157 127 264q0 42 -25.5 61t-56.5 19q-28 0 -58 -12l-49 -117z" />
<glyph unicode="&#xbe;" horiz-adv-x="1445" d="M59 1251q47 122 187 168q79 24 159 13t132 -48q77 -56 77 -159q0 -63 -33 -110.5t-92 -65.5q66 -19 102 -64t36 -108q0 -119 -97 -185q-83 -59 -186 -59q-165 0 -262 72l111 114q59 -47 133 -47q72 0 112 55q13 19 13 47q0 113 -172 113h-27v119h27q83 0 108 14 q57 26 57 78q0 54 -36 74q-38 24 -70 24q-33 0 -76 -16l-47 -100zM305 4l682 1411h184l-2 -29l-682 -1409l-176 23zM784 221v150l318 420h180v-435h96v-135h-96v-108l86 -13v-100h-422l-8 90l172 25v106h-326zM926 356h184v238z" />
<glyph unicode="&#xbf;" horiz-adv-x="800" d="M47 -125q0 131 57 211q58 82 144 147q88 65 135 117q49 52 49 131v25l162 2l4 -21q22 -114 -20 -194q-23 -47 -64 -88q-25 -25 -82 -67t-80 -64q-90 -78 -90 -172q0 -99 86 -140q28 -14 70 -14q80 0 135 19l53 194h125l-35 -323q-55 -19 -91 -30t-92.5 -20.5t-113.5 -9.5 q-166 0 -259 82t-93 215zM385 877q0 51 35 85.5t86 34.5t87 -36t36 -87q0 -49 -37 -83.5t-88 -34.5t-85 35t-34 86z" />
<glyph unicode="&#xc0;" horiz-adv-x="1245" d="M-2 127l106 37l414 1251h197l436 -1251l94 -37l-22 -127h-482v121l181 43l-99 307h-438l-94 -307l176 -41v-123h-442zM387 1726l115 168l69 -12l287 -317l-76 -90zM438 643h328l-168 514z" />
<glyph unicode="&#xc1;" horiz-adv-x="1245" d="M-2 127l106 37l414 1251h197l436 -1251l94 -37l-22 -127h-482v121l181 43l-99 303h-438l-94 -303l176 -41v-123h-442zM387 1597l293 304l68 8l118 -187l-399 -229zM438 643h328l-168 514z" />
<glyph unicode="&#xc2;" horiz-adv-x="1245" d="M-2 127l106 37l414 1251h197l436 -1251l94 -37l-22 -127h-482v121l181 43l-99 303h-438l-94 -303l176 -41v-123h-442zM274 1499l322 332h53l320 -334l-4 -10h-166l-178 121l-177 -121h-163zM438 643h328l-168 514z" />
<glyph unicode="&#xc3;" horiz-adv-x="1245" d="M-2 127l106 37l414 1251h197l436 -1251l94 -37l-22 -127h-482v121l181 43l-99 303h-438l-94 -303l176 -41v-123h-442zM274 1559v34q46 100 148 144q41 21 113.5 18t126.5 -33q77 -45 106 -67l18 -13l125 115l121 -137q-113 -125 -205 -125q-43 0 -79 13t-77 37t-59 32 q-30 20 -87 17.5t-87 -35.5q-33 -33 -49 -70zM438 643h328l-168 514z" />
<glyph unicode="&#xc4;" horiz-adv-x="1245" d="M-2 127l106 37l414 1251h197l436 -1251l94 -37l-22 -127h-482v121l181 43l-99 303h-438l-94 -303l176 -41v-123h-442zM311 1788q0 54 36.5 92.5t90.5 38.5q55 0 93 -38.5t38 -94.5q0 -53 -39.5 -91t-91.5 -38q-51 0 -89 38.5t-38 92.5zM438 643h328l-168 514zM674 1788 q0 54 38.5 92.5t92.5 38.5q55 0 93 -38.5t38 -92.5t-38.5 -92.5t-92.5 -38.5q-51 0 -91 40t-40 91z" />
<glyph unicode="&#xc5;" horiz-adv-x="1236" d="M-6 127l106 37l394 1192q-86 59 -86 170q0 86 59 145q60 60 145 60q88 0 147.5 -61.5t59.5 -156.5q0 -96 -88 -157l416 -1192l94 -37l-22 -127h-482v121l181 43l-99 303h-438l-94 -303l176 -41v-123h-443zM434 643h328l-168 514zM535 1526q0 -36 24.5 -56.5t54 -20.5 t54 20.5t24.5 56.5t-24.5 56.5t-54 20.5t-54 -20.5t-24.5 -56.5z" />
<glyph unicode="&#xc6;" horiz-adv-x="1609" d="M-25 127l107 37l524 1251h873l41 -385h-129l-78 209h-381v-430h323v-176h-323v-457h401l72 207h129l-41 -383h-868l-21 145l125 27v356h-319l-146 -364l180 -41v-123h-442zM481 705h248v546l-29 2z" />
<glyph unicode="&#xc7;" horiz-adv-x="1193" d="M72 692q0 340 207 541q194 182 485 182q137 0 303 -39l39 -372h-139l-80 221q-38 14 -135 14q-98 0 -185 -43t-153 -115q-127 -148 -127 -368q0 -236 141 -389q144 -156 381 -156q80 0 155 24.5t113 53.5l60 -162q-116 -81 -320 -90l-29 -74q80 -21 128.5 -73.5 t48.5 -143.5q0 -100 -79.5 -165.5t-211.5 -65.5q-100 0 -219 49l-13 4l84 164l136 -88q72 0 108 51q8 10 12 28t-0.5 40t-18 41.5t-47.5 32.5t-83 13l-25 3l-33 34l58 160q-240 44 -391 217q-170 194 -170 471z" />
<glyph unicode="&#xc8;" horiz-adv-x="1103" d="M98 145l125 27v1079l-123 11v153h873l41 -385h-129l-78 209h-381v-430h324v-176h-324v-457h401l72 207h129l-41 -383h-868zM301 1726l117 168l69 -12l285 -317l-74 -90z" />
<glyph unicode="&#xc9;" horiz-adv-x="1103" d="M98 145l125 27v1079l-123 11v153h873l41 -385h-129l-78 209h-381v-430h324v-176h-324v-457h401l72 207h129l-41 -383h-868zM387 1597l295 304l70 8l116 -187l-399 -229z" />
<glyph unicode="&#xca;" horiz-adv-x="1103" d="M98 145l125 27v1079l-123 11v153h873l41 -385h-129l-78 209h-381v-430h324v-176h-324v-457h401l72 207h129l-41 -383h-868zM207 1499l321 332h54l319 -334l-4 -10h-166l-178 121l-176 -121h-164z" />
<glyph unicode="&#xcb;" horiz-adv-x="1103" d="M98 145l125 27v1079l-123 11v153h873l41 -385h-129l-78 209h-381v-430h324v-176h-324v-457h401l72 207h129l-41 -383h-868zM258 1810q0 54 36.5 93t90.5 39q55 0 93 -39t38 -95q0 -53 -39.5 -91t-91.5 -38q-51 0 -89 38.5t-38 92.5zM621 1810q0 54 38.5 93t92.5 39 q55 0 93 -39t38 -93t-38.5 -92.5t-92.5 -38.5q-51 0 -91 40t-40 91z" />
<glyph unicode="&#xcc;" horiz-adv-x="655" d="M78 147l147 23v1079l-129 11v155h447l20 -153l-133 -21v-1075l133 -16v-150h-448zM78 1726l117 168l65 -12l287 -317l-74 -90z" />
<glyph unicode="&#xcd;" horiz-adv-x="653" d="M94 147l129 23v1079l-129 11v155h447l20 -153l-133 -21v-1075l133 -16v-150h-448zM96 1597l293 304l70 8l116 -187l-399 -229z" />
<glyph unicode="&#xce;" horiz-adv-x="653" d="M-20 1499l321 332h53l320 -334l-4 -10h-166l-178 121l-176 -121h-164zM94 147l129 23v1079l-129 11v155h447l20 -153l-133 -21v-1075l133 -16v-150h-448z" />
<glyph unicode="&#xcf;" horiz-adv-x="653" d="M43 1634q0 54 37 91.5t88 37.5q52 0 91.5 -38t39.5 -91t-39.5 -91t-91.5 -38q-51 0 -88 37.5t-37 91.5zM94 147l129 23v1079l-129 11v155h447l20 -153l-133 -21v-1075l133 -16v-150h-448zM371 1632q0 55 38.5 93t92.5 38q53 0 89 -38t36 -93q0 -52 -37 -89.5t-90 -37.5 q-52 0 -90.5 37t-38.5 90z" />
<glyph unicode="&#xd0;" horiz-adv-x="1294" d="M76 637v139l20 23h127v452l-123 13v151h387q335 0 531 -178q203 -182 203 -520q0 -337 -195 -529q-194 -188 -530 -188h-377l-21 145l125 29v463h-147zM426 176h49q263 0 399 148q132 138 132 401q0 258 -162 389q-150 129 -418 129v-444h340q14 0 14 -17v-145h-354v-461 z" />
<glyph unicode="&#xd1;" horiz-adv-x="1425" d="M96 145l129 27v1075l-123 13v155h428l517 -1218v1050l-127 17v151h403l27 -153l-131 -25v-1237h-240l-582 1223v-893l2 -146q0 -14 2 -18l117 -21v-145h-397zM342 1559v34q46 101 150 144q40 21 111.5 18t125.5 -33q81 -48 107 -67l18 -13l125 115l121 -137 q-113 -125 -205 -125q-43 0 -79 13t-77 37t-59 32q-30 20 -87 17.5t-87 -35.5q-33 -33 -49 -70z" />
<glyph unicode="&#xd2;" d="M88 705q0 304 143 499q157 213 435 213q279 0 436 -213q145 -201 145 -499q0 -299 -145 -500q-157 -213 -436 -213q-278 0 -435 213q-143 195 -143 500zM303 700q0 -217 90 -370q94 -162 273 -162q178 0 276 162q90 149 90 370q0 224 -90 377q-102 164 -276 164 q-178 0 -273 -164q-90 -153 -90 -377zM428 1726l115 168l67 -12l287 -317l-74 -90z" />
<glyph unicode="&#xd3;" d="M88 705q0 304 143 499q157 213 435 213q279 0 436 -213q145 -201 145 -499q0 -299 -145 -500q-157 -213 -436 -213q-278 0 -435 213q-143 195 -143 500zM303 700q0 -217 90 -370q94 -162 273 -162q178 0 276 162q90 149 90 370q0 224 -90 377q-102 164 -276 164 q-178 0 -273 -164q-90 -153 -90 -377zM449 1597l292 304l70 8l117 -187l-400 -229z" />
<glyph unicode="&#xd4;" d="M88 705q0 304 143 499q157 213 435 213q279 0 436 -213q145 -201 145 -499q0 -299 -145 -500q-157 -213 -436 -213q-278 0 -435 213q-143 195 -143 500zM303 700q0 -217 90 -370q94 -162 273 -162q178 0 276 162q90 149 90 370q0 224 -90 377q-102 164 -276 164 q-178 0 -273 -164q-90 -153 -90 -377zM319 1499l322 332h53l320 -334l-2 -10h-168l-178 121l-177 -121h-167z" />
<glyph unicode="&#xd5;" d="M88 705q0 304 143 499q157 213 435 213q279 0 436 -213q145 -201 145 -499q0 -299 -145 -500q-157 -213 -436 -213q-278 0 -435 213q-143 195 -143 500zM297 1559v34q46 102 145 144q40 21 116.5 18t135.5 -39q69 -40 111 -74l125 115l121 -137q-65 -83 -148 -113 q-84 -36 -207 37q-29 18 -42.5 25t-43 15.5t-63.5 8.5q-84 0 -139 -104zM303 700q0 -217 90 -370q94 -162 273 -162q178 0 276 162q90 149 90 370q0 224 -90 377q-102 164 -276 164q-178 0 -273 -164q-90 -153 -90 -377z" />
<glyph unicode="&#xd6;" d="M88 705q0 304 143 499q157 213 435 213q279 0 436 -213q145 -201 145 -499q0 -299 -145 -500q-157 -213 -436 -213q-278 0 -435 213q-143 195 -143 500zM303 700q0 -217 90 -370q94 -162 273 -162q178 0 276 162q90 149 90 370q0 224 -90 377q-102 164 -276 164 q-178 0 -273 -164q-90 -153 -90 -377zM371 1810q0 54 36.5 93t90.5 39q55 0 93 -39t38 -95q0 -53 -39.5 -91t-91.5 -38q-51 0 -89 38.5t-38 92.5zM733 1810q0 54 38.5 93t92.5 39q55 0 93 -39t38 -93t-38.5 -92.5t-92.5 -38.5q-51 0 -91 40t-40 91z" />
<glyph unicode="&#xd7;" horiz-adv-x="978" d="M100 1008l109 108l283 -282l274 274l111 -109l-277 -276l272 -270l-108 -109l-272 270l-277 -276l-109 111l277 276z" />
<glyph unicode="&#xd8;" d="M88 690q0 319 143 514q157 213 435 213q109 0 194 -33l70 154h200l-2 -39l-100 -217q107 -95 163 -246t56 -317q0 -316 -145 -514q-157 -213 -436 -213q-127 0 -215 39l-64 -140h-192l-7 37l99 213q-97 95 -148 241.5t-51 307.5zM303 705q0 -218 78 -359l401 873 q-42 20 -96.5 22t-109 -13.5t-104.5 -54.5t-79 -96q-90 -153 -90 -372zM528 199q59 -32 146 -30.5t153 42.5q68 45 115 119q90 149 90 372t-96 381z" />
<glyph unicode="&#xd9;" horiz-adv-x="1306" d="M61 1262v153h474v-151l-142 -19v-768q0 -309 283 -309q188 0 250 164q22 61 22 147v768l-125 19v149h414v-151l-117 -21v-772q0 -240 -137 -365q-120 -114 -313 -114q-233 0 -357.5 125t-124.5 354v778zM420 1726l115 168l69 -12l287 -317l-76 -90z" />
<glyph unicode="&#xda;" horiz-adv-x="1306" d="M61 1262v153h474v-151l-142 -19v-768q0 -309 283 -309q188 0 250 164q22 61 22 147v768l-125 19v149h414v-151l-117 -21v-772q0 -240 -137 -365q-120 -114 -313 -114q-233 0 -357.5 125t-124.5 354v778zM485 1597l295 304l70 8l115 -187l-398 -229z" />
<glyph unicode="&#xdb;" horiz-adv-x="1306" d="M61 1262v153h474v-151l-142 -19v-768q0 -309 283 -309q188 0 250 164q22 61 22 147v768l-125 19v149h414v-151l-117 -21v-772q0 -240 -137 -365q-120 -114 -313 -114q-233 0 -357.5 125t-124.5 354v778zM326 1499l321 332h53l320 -334l-2 -10h-168l-178 121l-176 -121 h-168z" />
<glyph unicode="&#xdc;" horiz-adv-x="1325" d="M61 1262v153h474v-151l-142 -19v-768q0 -149 73 -229t218 -80q190 0 258 164q25 61 25 147v768l-125 19v149h413v-151l-116 -21v-772q0 -239 -144 -365q-126 -114 -317 -114q-234 0 -362 125.5t-128 353.5v778zM395 1810q0 54 36.5 93t90.5 39q55 0 93 -39t38 -95 q0 -53 -39.5 -91t-91.5 -38q-51 0 -89 38.5t-38 92.5zM758 1810q0 54 38.5 93t92.5 39q55 0 93 -39t38 -93t-38.5 -92.5t-92.5 -38.5q-51 0 -91 40t-40 91z" />
<glyph unicode="&#xdd;" horiz-adv-x="1153" d="M8 1262v153h436l15 -135l-137 -25l284 -524l258 526l-125 23v135h400v-153l-88 -21l-369 -737v-334l238 -41l-21 -129h-635l-20 129l235 41v346l-389 727zM412 1597l295 304l69 8l115 -187l-397 -229z" />
<glyph unicode="&#xde;" horiz-adv-x="1075" d="M94 147l129 23v1079l-129 11v155h447l20 -153l-133 -21l4 -76q303 0 452.5 -104t149.5 -320q0 -218 -162 -331q-144 -99 -403 -99h-41v-145l236 -37v-129h-551zM428 487h33q190 0 274 61.5t84 176.5q0 137 -91.5 195.5t-283.5 58.5h-16v-492z" />
<glyph unicode="&#xdf;" horiz-adv-x="1079" d="M66 0v119l104 20v948q0 205 106 314q96 96 263 96q140 0 243 -80q111 -89 111 -233q0 -70 -22.5 -128t-54.5 -95t-63.5 -67.5t-54 -59t-22.5 -54.5q9 -44 92 -88q268 -139 268 -358q0 -158 -114 -260q-104 -90 -244 -90q-119 0 -229 49l110 192q9 -8 32.5 -30.5t40 -36 t30.5 -21.5q75 0 127.5 55t52.5 146q0 87 -90 162q-24 19 -82.5 57t-85.5 61q-90 72 -90 158q0 37 15.5 70.5t39 58t51 54.5t51 58.5t39 72t15.5 94.5q-5 67 -53.5 113t-116.5 46q-177 0 -177 -217v-1126h-292z" />
<glyph unicode="&#xe0;" horiz-adv-x="942" d="M74 254q0 191 159 272q127 65 367 68v145q0 45 -40.5 77t-115.5 32q-76 0 -112 -33l-41 -133l-215 63q47 172 231 230q61 20 148 20q157 0 243 -78t86 -210v-525q0 -43 29 -43q16 0 43 15l45 -109q-65 -53 -141 -53q-118 0 -148 92q-88 -94 -229 -94q-138 0 -225 78 q-84 78 -84 186zM256 1294l123 146l63 -17l220 -323l-76 -76zM268 283q0 -46 13.5 -71.5t40.5 -45.5q37 -28 103 -24.5t116 44.5q45 36 59 82v176q-127 0 -192.5 -19t-104.5 -58q-35 -35 -35 -84z" />
<glyph unicode="&#xe1;" horiz-adv-x="942" d="M74 254q0 191 159 272q127 65 367 68v145q0 45 -40.5 77t-115.5 32q-76 0 -112 -33l-41 -133l-215 63q47 172 231 230q61 20 148 20q157 0 243 -78t86 -210v-525q0 -43 29 -43q16 0 43 15l45 -109q-65 -53 -141 -53q-118 0 -148 92q-88 -94 -229 -94q-138 0 -225 78 q-84 78 -84 186zM268 283q0 -46 13.5 -71.5t40.5 -45.5q37 -28 103 -24.5t116 44.5q45 36 59 82v176q-127 0 -192.5 -19t-104.5 -58q-35 -35 -35 -84zM270 1174l236 305l65 16l123 -164l-340 -248z" />
<glyph unicode="&#xe2;" horiz-adv-x="942" d="M74 254q0 191 159 272q127 65 367 68v145q0 45 -40.5 77t-115.5 32q-76 0 -112 -33l-41 -133l-215 63q47 172 231 230q61 20 148 20q157 0 243 -78t86 -210v-525q0 -43 29 -43q16 0 43 15l45 -109q-65 -53 -141 -53q-118 0 -148 92q-88 -94 -229 -94q-138 0 -225 78 q-84 78 -84 186zM123 1108l272 326h68l274 -328l-12 -23h-160l-137 107l-137 -107h-158zM268 283q0 -46 13.5 -71.5t40.5 -45.5q37 -28 103 -24.5t116 44.5q45 36 59 82v176q-127 0 -192.5 -19t-104.5 -58q-35 -35 -35 -84z" />
<glyph unicode="&#xe3;" horiz-adv-x="942" d="M74 254q0 191 159 272q127 65 367 68v145q0 45 -40.5 77t-115.5 32q-76 0 -112 -33l-41 -133l-215 63q47 172 231 230q61 20 148 20q157 0 243 -78t86 -210v-525q0 -43 29 -43q16 0 43 15l45 -109q-65 -53 -141 -53q-118 0 -148 92q-88 -94 -229 -94q-138 0 -225 78 q-84 78 -84 186zM143 1198q0 55 54 115q65 71 163 71q74 0 177 -59q9 -6 47 -22l2 -7l94 97l115 -136q-29 -38 -66 -64.5t-72 -38t-68 -11t-57 13.5q-11 5 -50.5 25.5t-65 29.5t-51.5 9q-72 0 -113 -93zM268 283q0 -46 13.5 -71.5t40.5 -45.5q37 -28 103 -24.5t116 44.5 q45 36 59 82v176q-127 0 -192.5 -19t-104.5 -58q-35 -35 -35 -84z" />
<glyph unicode="&#xe4;" horiz-adv-x="942" d="M74 254q0 191 159 272q127 65 367 68v145q0 45 -40.5 77t-115.5 32q-76 0 -112 -33l-41 -133l-215 63q47 172 231 230q61 20 148 20q157 0 243 -78t86 -210v-525q0 -43 29 -43q16 0 43 15l45 -109q-65 -53 -141 -53q-118 0 -148 92q-88 -94 -229 -94q-138 0 -225 78 q-84 78 -84 186zM141 1278q0 54 36.5 90.5t90.5 36.5t90.5 -36.5t36.5 -90.5t-36.5 -90.5t-90.5 -36.5t-90.5 36.5t-36.5 90.5zM268 283q0 -46 13.5 -71.5t40.5 -45.5q37 -28 103 -24.5t116 44.5q45 36 59 82v176q-127 0 -192.5 -19t-104.5 -58q-35 -35 -35 -84zM471 1278 q0 54 36.5 90.5t90.5 36.5t90.5 -36.5t36.5 -90.5t-36.5 -90.5t-90.5 -36.5t-90.5 36.5t-36.5 90.5z" />
<glyph unicode="&#xe5;" horiz-adv-x="942" d="M74 254q0 191 159 272q127 65 367 68v145q0 45 -40.5 77t-115.5 32q-76 0 -112 -33l-41 -133l-215 63q47 172 231 230q61 20 148 20q157 0 243 -78t86 -210v-525q0 -43 29 -43q16 0 43 15l45 -109q-65 -53 -141 -53q-118 0 -148 92q-88 -94 -229 -94q-138 0 -225 78 q-84 78 -84 186zM268 283q0 -46 13.5 -71.5t40.5 -45.5q37 -28 103 -24.5t116 44.5q45 36 59 82v176q-127 0 -192.5 -19t-104.5 -58q-35 -35 -35 -84zM268 1290q0 82 56.5 138.5t138.5 56.5q84 0 140 -56.5t56 -138.5t-56 -138t-140 -56q-82 0 -138.5 56t-56.5 138z M389 1290q0 -31 21.5 -52t52.5 -21t53.5 21.5t22.5 51.5q0 31 -22.5 52.5t-53.5 21.5t-52.5 -21.5t-21.5 -52.5z" />
<glyph unicode="&#xe6;" horiz-adv-x="1441" d="M74 252q0 190 168 272q134 70 358 70v145q0 45 -40.5 77t-115.5 32q-76 0 -112 -33l-41 -133l-215 63q47 172 231 230q61 20 148 20q198 0 286 -131q131 131 318 131q139 0 229 -69q96 -72 96 -199q0 -213 -278 -283q-99 -24 -236 -24h-36q-25 0 -39 2q21 -193 163 -254 q49 -24 124 -23t130 29q59 27 82 47l39 -139q-31 -33 -106.5 -61.5t-173.5 -28.5q-114 0 -213.5 47.5t-163.5 142.5q-53 -128 -182 -174q-46 -18 -107 -18q-139 0 -226 76.5t-87 185.5zM268 274q0 -71 54 -106q37 -27 84.5 -27t80.5 13.5t54 31.5q45 36 59 82v176 q-332 0 -332 -170zM795 573h75q125 0 189.5 17.5t99.5 50.5q31 31 31 64q0 65 -29 94q-20 25 -63.5 37t-102 -2t-104.5 -60q-81 -75 -96 -201z" />
<glyph unicode="&#xe7;" horiz-adv-x="882" d="M74 477q0 271 143 408q113 110 297 110q134 0 231 -69q80 -56 107 -117l-203 -96l-65 118q-49 11 -68 11q-248 0 -248 -361q0 -153 75 -244.5t198 -91.5q60 0 122.5 22t102.5 62l45 -143q-94 -75 -227 -90l-25 -72q139 -35 139 -168q0 -80 -63.5 -131t-171.5 -51 q-89 0 -180 39l67 135l111 -76q62 0 92 43q10 17 10 39q0 90 -145 90l-25 31l43 123q-158 27 -252 141q-110 128 -110 338z" />
<glyph unicode="&#xe8;" horiz-adv-x="927" d="M72 485q0 -240 133 -370q126 -123 334 -123q142 0 258 67q24 15 32 23l-45 143q-49 -49 -145 -69q-58 -21 -146.5 -5.5t-132.5 62.5q-64 61 -84 164q316 3 455 115q105 82 105 233q0 121 -95 199q-92 71 -227 71q-185 0 -307 -131q-135 -141 -135 -379zM266 528 q12 154 84 238q65 74 170 74q58 0 89.5 -36t31.5 -95q0 -54 -37 -93t-98 -59q-95 -29 -240 -29zM317 1378l121 162l66 -16l233 -303l-84 -88z" />
<glyph unicode="&#xe9;" horiz-adv-x="909" d="M72 485q0 127 37 220q38 96 98 159q122 131 307 131q135 0 227 -71q95 -77 95 -199q0 -148 -105 -233q-139 -112 -455 -115q34 -160 166 -213q46 -18 102.5 -18t94 9t68.5 21q55 27 77 49l45 -143q-25 -25 -75 -45q-208 -84 -402 -14q-179 65 -246 247q-34 90 -34 215z M266 528q249 0 336 84q37 37 38.5 96t-30.5 95q-29 34 -89 36.5t-99 -18.5q-36 -16 -72 -55q-72 -84 -84 -238zM319 1174l236 305l66 16l122 -164l-340 -248z" />
<glyph unicode="&#xea;" horiz-adv-x="927" d="M72 485q0 127 37 220q38 96 98 159q122 131 307 131q135 0 227 -71q95 -77 95 -199q0 -148 -105 -233q-139 -112 -455 -115q34 -160 166 -213q46 -18 102.5 -18t94 9t68.5 21q55 27 77 49l45 -143q-25 -25 -75 -45q-208 -84 -402 -14q-179 65 -246 247q-34 90 -34 215z M199 1108l272 326h68l274 -328l-12 -23h-160l-137 107l-137 -107h-158zM266 528q249 0 336 84q37 37 38.5 96t-30.5 95q-29 34 -89 36.5t-99 -18.5q-36 -16 -72 -55q-72 -84 -84 -238z" />
<glyph unicode="&#xeb;" horiz-adv-x="927" d="M72 485q0 127 37 220q38 96 98 159q122 131 307 131q135 0 227 -71q95 -77 95 -199q0 -148 -105 -233q-139 -112 -455 -115q34 -160 166 -213q46 -18 102.5 -18t94 9t68.5 21q55 27 77 49l45 -143q-25 -25 -75 -45q-208 -84 -402 -14q-179 65 -246 247q-34 90 -34 215z M217 1282q0 47 32 80t79 33q49 0 81.5 -33.5t32.5 -81.5q0 -45 -33.5 -78t-80.5 -33t-79 33t-32 80zM266 528q249 0 336 84q37 37 38.5 96t-30.5 95q-29 34 -89 36.5t-99 -18.5q-36 -16 -72 -55q-72 -84 -84 -238zM524 1282q0 47 32 80t79 33q49 0 82 -33.5t33 -81.5 q0 -45 -34 -78t-81 -33q-46 0 -78.5 34t-32.5 79z" />
<glyph unicode="&#xec;" horiz-adv-x="548" d="M59 950l21 -123l113 9v-697l-127 -28l22 -111h410v111l-121 32v787l-66 65zM59 1333l123 164l66 -16l233 -305l-82 -89z" />
<glyph unicode="&#xed;" horiz-adv-x="548" d="M59 950l252 45l66 -65v-787l121 -32v-111h-410l-22 111l127 28v697l-113 -9zM66 1174l235 305l66 16l120 -164l-337 -246z" />
<glyph unicode="&#xee;" horiz-adv-x="548" d="M-23 1114l256 309h50l256 -307l-11 -16h-137l-135 110l-137 -110h-133zM59 950l252 45l66 -65v-787l121 -32v-111h-410l-22 111l127 28v697l-113 -9z" />
<glyph unicode="&#xef;" horiz-adv-x="548" d="M-2 1282q0 47 32 80t79 33q49 0 81.5 -33.5t32.5 -81.5q0 -45 -33.5 -78t-80.5 -33t-79 33t-32 80zM59 950l252 45l66 -65v-787l121 -32v-111h-410l-22 111l127 28v697l-113 -9zM283 1282q0 47 32.5 80t79.5 33t81 -34t34 -81q0 -44 -35 -77.5t-82 -33.5q-44 0 -77 34 t-33 79z" />
<glyph unicode="&#xf0;" horiz-adv-x="1046" d="M72 438q0 190 108 328q115 139 293 139q172 0 260 -94q-47 157 -155 274l-218 -122l-65 116l166 113q-74 58 -207 121l76 182q154 -59 303 -184l219 149l100 -164l-198 -112q189 -233 207 -529v-41q0 -258 -107 -426q-123 -196 -348 -196q-214 0 -330 143 q-104 125 -104 303zM266 438q0 -124 68 -198q69 -72 174 -72q194 0 244 274q0 142 -80 222q-67 67 -178 67q-116 0 -175 -90q-53 -77 -53 -203z" />
<glyph unicode="&#xf1;" horiz-adv-x="1085" d="M59 950q19 3 252 45l60 -75q97 75 245 75q214 0 281 -155q23 -58 23 -131v-564l122 -34v-111h-407l-25 111l125 28v539q2 69 -27.5 108.5t-75 46.5t-96.5 -1.5t-94 -29.5t-65 -44v-615l119 -32v-111h-408l-25 111l130 28v697l-113 -9zM246 1198q0 56 53 115q65 71 164 71 q73 0 176 -59q9 -6 47 -22l2 -7l94 97l115 -136q-38 -50 -89.5 -80t-94.5 -33t-78 13q-10 5 -50 25.5t-66 29.5t-52 9q-72 0 -113 -93z" />
<glyph unicode="&#xf2;" horiz-adv-x="1013" d="M74 502q0 -236 123 -371q121 -139 311 -139q184 0 303 131q131 137 131 375q0 227 -123 362t-311 135q-182 0 -303 -127q-131 -137 -131 -366zM268 485q0 251 135 330q47 27 105 27q111 0 175.5 -96t64.5 -265q0 -171 -68 -254q-67 -82 -174 -82q-106 0 -172 84 q-66 87 -66 256zM319 1333l123 164l66 -16l233 -307l-82 -89z" />
<glyph unicode="&#xf3;" horiz-adv-x="1013" d="M74 502q0 232 131 366q121 127 303 127q188 0 311 -135t123 -362q0 -238 -131 -375q-119 -131 -303 -131q-190 0 -311 139q-123 138 -123 371zM268 479q0 -163 66 -250q66 -84 172 -84q107 0 174 82q68 83 68 254q0 167 -66 264t-174 97q-116 0 -180 -101 q-60 -97 -60 -262zM326 1174l235 305l66 16l123 -164l-340 -248z" />
<glyph unicode="&#xf4;" horiz-adv-x="1011" d="M74 502q0 232 131 366q121 127 303 127q188 0 311 -135t123 -362q0 -238 -131 -375q-119 -131 -303 -131q-190 0 -311 139q-123 138 -123 371zM223 1114l256 309h49l256 -307l-8 -16h-135l-137 110l-137 -110h-134zM268 479q0 -163 66 -250q66 -84 172 -84q107 0 174 82 q68 83 68 254q0 167 -66 264t-174 97q-116 0 -180 -101q-60 -97 -60 -262z" />
<glyph unicode="&#xf5;" horiz-adv-x="1011" d="M74 502q0 232 131 366q121 127 303 127q188 0 311 -135t123 -362q0 -238 -131 -375q-119 -131 -303 -131q-190 0 -311 139q-123 138 -123 371zM193 1196q0 56 53 115q70 73 164 73q70 0 176 -59q8 -4 49 -22l2 -7l94 95l115 -136q-50 -54 -93.5 -82t-90.5 -28 q-31 0 -58.5 6.5t-40 12t-37.5 18.5q-64 35 -112 34.5t-73 -25t-38 -65.5zM268 479q0 -163 66 -250q66 -84 172 -84q107 0 174 82q68 83 68 254q0 167 -66 264t-174 97q-116 0 -180 -101q-60 -97 -60 -262z" />
<glyph unicode="&#xf6;" horiz-adv-x="1011" d="M74 502q0 232 131 366q121 127 303 127q188 0 311 -135t123 -362q0 -238 -131 -375q-119 -131 -303 -131q-190 0 -311 139q-123 138 -123 371zM246 1282q0 48 31.5 80.5t78.5 32.5q49 0 82 -33.5t33 -81.5q0 -45 -34 -78t-81 -33t-78.5 32.5t-31.5 80.5zM268 479 q0 -163 66 -250q66 -84 172 -84q107 0 174 82q68 83 68 254q0 167 -66 264t-174 97q-116 0 -180 -101q-60 -97 -60 -262zM553 1282q0 47 32 80t79 33q49 0 81.5 -33.5t32.5 -81.5q0 -45 -33.5 -78t-80.5 -33q-46 0 -78.5 34t-32.5 79z" />
<glyph unicode="&#xf7;" horiz-adv-x="858" d="M92 520v156h674v-156h-674zM328 283q0 47 31.5 79.5t78.5 32.5q49 0 82 -33t33 -81q0 -45 -34 -78t-81 -33q-46 0 -78 34t-32 79zM328 915q0 48 31.5 80.5t78.5 32.5q49 0 82 -33.5t33 -81.5q0 -44 -34 -77t-81 -33t-78.5 32.5t-31.5 79.5z" />
<glyph unicode="&#xf8;" horiz-adv-x="1011" d="M74 498q0 233 131 370q121 127 303 127q60 0 125 -18l108 237h174q0 -8 -2 -26l-131 -291q158 -140 158 -399q0 -237 -129 -375q-122 -131 -303 -131q-62 0 -127 18l-94 -211h-168l-6 27l120 266q-159 138 -159 406zM268 494q0 -149 43 -228l256 563q-27 9 -59 9 q-115 0 -177.5 -95.5t-62.5 -248.5zM446 154q24 -9 62 -9q107 0 172 85t65 237q0 157 -47 246z" />
<glyph unicode="&#xf9;" horiz-adv-x="1044" d="M25 950l20 -119h113v-501q0 -172 98 -260q87 -78 229 -78q135 0 230 92q35 -92 139 -92q76 0 133 57l-29 92l-36 -4q-37 0 -37 68v723l-60 69l-250 -47l19 -119h106v-575q-17 -45 -77 -80q-132 -63 -226 8q-55 52 -55 189v555l-63 67zM236 1333l120 164l66 -16l235 -307 l-84 -89z" />
<glyph unicode="&#xfa;" horiz-adv-x="1044" d="M25 950l254 45l63 -67v-555q0 -193 113 -217q88 -24 168 20q60 35 77 80v575h-106l-19 119l250 47l60 -69v-723q0 -68 37 -68l36 4l29 -92q-57 -57 -133 -57q-104 0 -139 92q-95 -92 -230 -92q-225 0 -301 184q-26 62 -26 154v501h-113zM305 1174l236 305l65 16l123 -164 l-340 -248z" />
<glyph unicode="&#xfb;" horiz-adv-x="1044" d="M25 950l254 45l63 -67v-555q0 -193 113 -217q88 -24 168 20q60 35 77 80v575h-106l-19 119l250 47l60 -69v-723q0 -68 37 -68l36 4l29 -92q-57 -57 -133 -57q-104 0 -139 92q-95 -92 -230 -92q-225 0 -301 184q-26 62 -26 154v501h-113zM201 1114l256 309h49l256 -307 l-10 -16h-138l-135 110l-137 -110h-133z" />
<glyph unicode="&#xfc;" horiz-adv-x="1044" d="M25 950l254 45l63 -67v-555q0 -193 113 -217q88 -24 168 20q60 35 77 80v575h-106l-19 119l250 47l60 -69v-723q0 -68 37 -68l36 4l29 -92q-57 -57 -133 -57q-104 0 -139 92q-95 -92 -230 -92q-225 0 -301 184q-26 62 -26 154v501h-113zM256 1282q0 47 32 80t79 33 q49 0 81.5 -33.5t32.5 -81.5q0 -45 -33.5 -78t-80.5 -33t-79 33t-32 80zM563 1282q0 47 32 80t79 33q49 0 81.5 -33.5t32.5 -81.5q0 -45 -33.5 -78t-80.5 -33q-46 0 -78.5 34t-32.5 79z" />
<glyph unicode="&#xfd;" horiz-adv-x="983" d="M2 979l254 16l276 -829l259 686h-107l-14 125l248 18l53 -69q-167 -473 -330 -897q-140 -363 -170 -420q-16 -39 -53 -88q-72 -84 -185 -84q-91 0 -182 82l76 141q58 -70 121 -70q66 0 112 123q7 17 27 66l45 121l-332 952h-82zM283 1174l235 305l66 16l123 -164 l-340 -248z" />
<glyph unicode="&#xfe;" horiz-adv-x="1007" d="M8 1466l260 39l62 -65v-500q55 36 123 48.5t129.5 4.5t111.5 -32q75 -35 127 -99q113 -134 113 -356q0 -278 -152 -412q-117 -102 -286 -102q-105 0 -170 33q4 -86 4 -93v-329l245 -49v-113h-530l-14 110l112 27v1774l-116 -9zM330 197q19 -21 64.5 -36.5t88.5 -15.5 q104 0 168 72q88 88 88 277q0 174 -75 264q-62 80 -168 80q-49 0 -95 -19t-71 -49v-573z" />
<glyph unicode="&#xff;" horiz-adv-x="978" d="M0 979l248 16l276 -829l264 694h-108l-14 117l249 18l52 -69q-146 -413 -285 -770q-31 -78 -68 -173.5t-57.5 -148t-32.5 -80.5q-37 -100 -60.5 -147.5t-53.5 -85.5q-72 -84 -185 -84q-91 0 -182 82l76 141q58 -70 121 -70q66 0 112 123q8 17 27 66l45 121l-332 960h-76z M215 1282q0 47 32 80t79 33q49 0 81.5 -33.5t32.5 -81.5q0 -45 -33.5 -78t-80.5 -33t-79 33t-32 80zM522 1282q0 47 32 80t79 33q49 0 82 -33.5t33 -81.5q0 -45 -34 -78t-81 -33q-46 0 -78.5 34t-32.5 79z" />
<glyph unicode="&#x152;" horiz-adv-x="1787" d="M88 705q0 304 143 499q157 213 435 213l55 -2h936l41 -385h-129l-78 209h-381v-430h324v-176h-324v-457h401l72 207h129l-41 -383h-872q-63 -8 -133 -8q-278 0 -435 213q-143 195 -143 500zM303 700q0 -214 111 -370q113 -162 293 -162q131 0 200 72v923 q-62 50 -133 67.5t-132.5 7t-113.5 -41.5q-73 -46 -122 -119q-103 -151 -103 -377z" />
<glyph unicode="&#x153;" horiz-adv-x="1587" d="M74 498q0 233 131 370q121 127 303 127q220 0 342 -174q61 83 150.5 128.5t175.5 45.5q155 0 241 -71q96 -78 96 -203q0 -147 -104 -229q-139 -112 -455 -115q34 -160 166 -213q46 -18 102 -18t93.5 8.5t68.5 21.5q56 27 78 49l45 -143q-25 -25 -75 -45 q-105 -45 -215 -45q-248 0 -373 168q-58 -83 -150 -126t-184 -42.5t-177.5 36.5t-135.5 103q-123 138 -123 367zM268 479q0 -163 66 -250q66 -84 172 -84q107 0 174 82q68 83 68 254q0 167 -66 264t-174 97q-116 0 -180 -101q-60 -97 -60 -262zM944 528q249 0 336 84 q37 37 38.5 96t-30.5 95q-29 34 -89 36.5t-99 -18.5q-36 -16 -72 -55q-72 -84 -84 -238z" />
<glyph unicode="&#x2000;" horiz-adv-x="971" />
<glyph unicode="&#x2001;" horiz-adv-x="1942" />
<glyph unicode="&#x2002;" horiz-adv-x="971" />
<glyph unicode="&#x2003;" horiz-adv-x="1942" />
<glyph unicode="&#x2004;" horiz-adv-x="647" />
<glyph unicode="&#x2005;" horiz-adv-x="485" />
<glyph unicode="&#x2006;" horiz-adv-x="323" />
<glyph unicode="&#x2007;" horiz-adv-x="323" />
<glyph unicode="&#x2008;" horiz-adv-x="242" />
<glyph unicode="&#x2009;" horiz-adv-x="388" />
<glyph unicode="&#x200a;" horiz-adv-x="107" />
<glyph unicode="&#x2010;" horiz-adv-x="817" d="M119 500v125l24 28h543q12 0 12 -16v-137h-579z" />
<glyph unicode="&#x2011;" horiz-adv-x="817" d="M119 500v125l24 28h543q12 0 12 -16v-137h-579z" />
<glyph unicode="&#x2012;" horiz-adv-x="817" d="M119 500v125l24 28h543q12 0 12 -16v-137h-579z" />
<glyph unicode="&#x2013;" horiz-adv-x="987" d="M111 616v154h759v-154h-759z" />
<glyph unicode="&#x2014;" horiz-adv-x="1294" d="M111 616v154h1067v-154h-1067z" />
<glyph unicode="&#x2018;" horiz-adv-x="411" d="M78 1196q0 69 27 152t73 151l113 -33l8 -28l-49 -234l110 -209l-198 -92q-84 137 -84 293z" />
<glyph unicode="&#x2019;" horiz-adv-x="407" d="M61 985v29l103 209l-53 235l215 39q21 -84 21.5 -157t-15 -129.5t-45.5 -116.5q-48 -99 -119 -170z" />
<glyph unicode="&#x201a;" horiz-adv-x="434" d="M74 -199l84 213l-76 230l203 59q15 -25 32 -81.5t17 -117.5q0 -122 -60 -235q-50 -98 -108 -156l-92 64v24z" />
<glyph unicode="&#x201c;" horiz-adv-x="684" d="M90 1083q0 205 121 418l125 -61v-29l-62 -209l54 -276l-215 -43q0 2 -13 84q-10 85 -10 116zM366.5 1086q-0.5 75 11.5 128t36 117q36 96 90 170l106 -61v-29l-61 -209l53 -235l-215 -39q-20 83 -20.5 158z" />
<glyph unicode="&#x201d;" horiz-adv-x="673" d="M80 924v28l61 209l-53 236l215 39q20 -83 20.5 -158t-11.5 -128.5t-36 -117.5q-36 -96 -90 -170zM354 924v28l62 209l-54 277l216 43q1 -4 2.5 -16.5t4 -32t5.5 -35.5q10 -85 10 -117q0 -205 -121 -418z" />
<glyph unicode="&#x201e;" horiz-adv-x="708" d="M68 -223l84 192l-76 230l194 59q8 -16 27 -84q18 -65 18 -131q0 -111 -55 -209q-48 -85 -108 -145l-84 63v25zM330 -246l104 215l-76 291l203 59q47 -143 47 -272q0 -150 -104 -305q-28 -43 -62 -74l-112 62v24z" />
<glyph unicode="&#x2022;" horiz-adv-x="530" d="M88 784q0 74 51.5 126.5t124.5 52.5t125.5 -52.5t52.5 -126.5q0 -73 -52 -124.5t-126 -51.5t-125 51t-51 125z" />
<glyph unicode="&#x202f;" horiz-adv-x="388" />
<glyph unicode="&#x2039;" horiz-adv-x="714" d="M23 590v53l579 442l10 -4v-186l-366 -281l366 -278v-186l-12 -7z" />
<glyph unicode="&#x203a;" horiz-adv-x="716" d="M102 150v186l367 278l-367 281v186l11 4l579 -442v-53l-577 -447z" />
<glyph unicode="&#x205f;" horiz-adv-x="485" />
<glyph unicode="&#x20ac;" horiz-adv-x="1165" d="M63 455v155h117q-2 14 -2 39v64h-115v155h125q35 278 177 414.5t378 136.5q187 0 306 -35l38 -360h-139l-80 201q-46 20 -127 18.5t-141 -29.5q-64 -27 -104 -79q-77 -95 -95 -267h521v-155h-529l2 -103h527v-155h-510q27 -143 102 -209q87 -78 244 -78q79 0 147 24 t107 54l59 -162q-130 -92 -348 -92q-433 0 -524 463h-136z" />
<glyph unicode="&#xe000;" horiz-adv-x="993" d="M0 0v993h993v-993h-993z" />
</font>
</defs>
</svg>
